<svg xmlns="http://www.w3.org/2000/svg" xmlns:xlink="http://www.w3.org/1999/xlink" width="200" zoomAndPan="magnify" viewBox="0 0 150 37.5" height="50" preserveAspectRatio="xMidYMid meet" version="1.0"><defs><g/><clipPath id="3df1981d09"><path d="M 0.988281 0 L 149.011719 0 L 149.011719 37.007812 L 0.988281 37.007812 Z M 0.988281 0 " clip-rule="nonzero"/></clipPath><clipPath id="6bbc148e09"><path d="M 29 11 L 47.683594 11 L 47.683594 34.664062 L 29 34.664062 Z M 29 11 " clip-rule="nonzero"/></clipPath><clipPath id="feae94662a"><path d="M 11.417969 25 L 31 25 L 31 34.664062 L 11.417969 34.664062 Z M 11.417969 25 " clip-rule="nonzero"/></clipPath></defs><g clip-path="url(#3df1981d09)"><path fill="#ffffff" d="M 0.988281 0 L 149.011719 0 L 149.011719 44.40625 L 0.988281 44.40625 Z M 0.988281 0 " fill-opacity="1" fill-rule="nonzero"/><path fill="#ffffff" d="M 0.988281 0 L 149.011719 0 L 149.011719 37.007812 L 0.988281 37.007812 Z M 0.988281 0 " fill-opacity="1" fill-rule="nonzero"/><path fill="#262930" d="M 0.988281 0 L 149.011719 0 L 149.011719 37.007812 L 0.988281 37.007812 Z M 0.988281 0 " fill-opacity="1" fill-rule="nonzero"/></g><g fill="#d9d9d9" fill-opacity="1"><g transform="translate(58.827509, 27.384868)"><g><path d="M 6.453125 -8.21875 C 7.066406 -8.21875 7.613281 -8.289062 8.09375 -8.4375 C 8.570312 -8.59375 8.972656 -8.804688 9.296875 -9.078125 C 9.617188 -9.359375 9.859375 -9.691406 10.015625 -10.078125 C 10.179688 -10.460938 10.265625 -10.890625 10.265625 -11.359375 C 10.265625 -12.304688 9.953125 -13.019531 9.328125 -13.5 C 8.710938 -13.988281 7.78125 -14.234375 6.53125 -14.234375 L 4.1875 -14.234375 L 4.1875 -8.21875 Z M 13.8125 0 L 11.890625 0 C 11.503906 0 11.21875 -0.148438 11.03125 -0.453125 L 6.890625 -6.140625 C 6.765625 -6.328125 6.628906 -6.457031 6.484375 -6.53125 C 6.335938 -6.601562 6.113281 -6.640625 5.8125 -6.640625 L 4.1875 -6.640625 L 4.1875 0 L 2.03125 0 L 2.03125 -15.9375 L 6.53125 -15.9375 C 7.539062 -15.9375 8.410156 -15.832031 9.140625 -15.625 C 9.878906 -15.414062 10.488281 -15.117188 10.96875 -14.734375 C 11.445312 -14.347656 11.800781 -13.882812 12.03125 -13.34375 C 12.257812 -12.800781 12.375 -12.191406 12.375 -11.515625 C 12.375 -10.953125 12.285156 -10.425781 12.109375 -9.9375 C 11.929688 -9.445312 11.671875 -9.003906 11.328125 -8.609375 C 10.992188 -8.222656 10.582031 -7.894531 10.09375 -7.625 C 9.613281 -7.351562 9.066406 -7.144531 8.453125 -7 C 8.722656 -6.84375 8.957031 -6.617188 9.15625 -6.328125 Z M 13.8125 0 "/></g></g></g><g fill="#d9d9d9" fill-opacity="1"><g transform="translate(72.752747, 27.384868)"><g><path d="M 3.65625 -11.265625 L 3.65625 0 L 1.671875 0 L 1.671875 -11.265625 Z M 4.078125 -14.796875 C 4.078125 -14.609375 4.035156 -14.425781 3.953125 -14.25 C 3.878906 -14.082031 3.773438 -13.9375 3.640625 -13.8125 C 3.515625 -13.6875 3.363281 -13.582031 3.1875 -13.5 C 3.019531 -13.425781 2.835938 -13.390625 2.640625 -13.390625 C 2.453125 -13.390625 2.273438 -13.425781 2.109375 -13.5 C 1.941406 -13.582031 1.796875 -13.6875 1.671875 -13.8125 C 1.546875 -13.9375 1.441406 -14.082031 1.359375 -14.25 C 1.285156 -14.425781 1.25 -14.609375 1.25 -14.796875 C 1.25 -14.992188 1.285156 -15.175781 1.359375 -15.34375 C 1.441406 -15.519531 1.546875 -15.671875 1.671875 -15.796875 C 1.796875 -15.929688 1.941406 -16.035156 2.109375 -16.109375 C 2.273438 -16.179688 2.453125 -16.21875 2.640625 -16.21875 C 2.835938 -16.21875 3.019531 -16.179688 3.1875 -16.109375 C 3.363281 -16.035156 3.515625 -15.929688 3.640625 -15.796875 C 3.773438 -15.671875 3.878906 -15.519531 3.953125 -15.34375 C 4.035156 -15.175781 4.078125 -14.992188 4.078125 -14.796875 Z M 4.078125 -14.796875 "/></g></g></g><g fill="#d9d9d9" fill-opacity="1"><g transform="translate(78.087237, 27.384868)"><g><path d="M 8.125 -9.40625 C 8.039062 -9.238281 7.90625 -9.15625 7.71875 -9.15625 C 7.601562 -9.15625 7.472656 -9.195312 7.328125 -9.28125 C 7.191406 -9.363281 7.019531 -9.453125 6.8125 -9.546875 C 6.613281 -9.648438 6.375 -9.742188 6.09375 -9.828125 C 5.8125 -9.921875 5.476562 -9.96875 5.09375 -9.96875 C 4.757812 -9.96875 4.457031 -9.921875 4.1875 -9.828125 C 3.925781 -9.742188 3.695312 -9.628906 3.5 -9.484375 C 3.3125 -9.335938 3.164062 -9.164062 3.0625 -8.96875 C 2.96875 -8.769531 2.921875 -8.554688 2.921875 -8.328125 C 2.921875 -8.035156 3.003906 -7.789062 3.171875 -7.59375 C 3.335938 -7.40625 3.554688 -7.238281 3.828125 -7.09375 C 4.109375 -6.957031 4.421875 -6.832031 4.765625 -6.71875 C 5.117188 -6.613281 5.476562 -6.5 5.84375 -6.375 C 6.207031 -6.257812 6.5625 -6.128906 6.90625 -5.984375 C 7.257812 -5.835938 7.570312 -5.648438 7.84375 -5.421875 C 8.125 -5.203125 8.347656 -4.929688 8.515625 -4.609375 C 8.679688 -4.285156 8.765625 -3.898438 8.765625 -3.453125 C 8.765625 -2.929688 8.671875 -2.445312 8.484375 -2 C 8.296875 -1.5625 8.019531 -1.179688 7.65625 -0.859375 C 7.289062 -0.535156 6.84375 -0.28125 6.3125 -0.09375 C 5.789062 0.0820312 5.1875 0.171875 4.5 0.171875 C 3.71875 0.171875 3.003906 0.046875 2.359375 -0.203125 C 1.722656 -0.460938 1.1875 -0.789062 0.75 -1.1875 L 1.21875 -1.953125 C 1.269531 -2.046875 1.335938 -2.117188 1.421875 -2.171875 C 1.503906 -2.222656 1.609375 -2.25 1.734375 -2.25 C 1.867188 -2.25 2.007812 -2.195312 2.15625 -2.09375 C 2.300781 -1.988281 2.476562 -1.875 2.6875 -1.75 C 2.90625 -1.625 3.164062 -1.507812 3.46875 -1.40625 C 3.769531 -1.300781 4.148438 -1.25 4.609375 -1.25 C 4.992188 -1.25 5.328125 -1.296875 5.609375 -1.390625 C 5.898438 -1.492188 6.140625 -1.628906 6.328125 -1.796875 C 6.523438 -1.972656 6.671875 -2.171875 6.765625 -2.390625 C 6.859375 -2.609375 6.90625 -2.847656 6.90625 -3.109375 C 6.90625 -3.410156 6.820312 -3.664062 6.65625 -3.875 C 6.488281 -4.082031 6.265625 -4.253906 5.984375 -4.390625 C 5.710938 -4.535156 5.398438 -4.660156 5.046875 -4.765625 C 4.703125 -4.878906 4.34375 -4.992188 3.96875 -5.109375 C 3.601562 -5.234375 3.242188 -5.367188 2.890625 -5.515625 C 2.546875 -5.671875 2.234375 -5.863281 1.953125 -6.09375 C 1.679688 -6.320312 1.460938 -6.601562 1.296875 -6.9375 C 1.128906 -7.28125 1.046875 -7.691406 1.046875 -8.171875 C 1.046875 -8.597656 1.132812 -9.007812 1.3125 -9.40625 C 1.488281 -9.800781 1.742188 -10.148438 2.078125 -10.453125 C 2.421875 -10.753906 2.84375 -10.992188 3.34375 -11.171875 C 3.84375 -11.347656 4.410156 -11.4375 5.046875 -11.4375 C 5.785156 -11.4375 6.445312 -11.316406 7.03125 -11.078125 C 7.625 -10.847656 8.140625 -10.53125 8.578125 -10.125 Z M 8.125 -9.40625 "/></g></g></g><g fill="#d9d9d9" fill-opacity="1"><g transform="translate(87.711545, 27.384868)"><g><path d="M 9.109375 -6.859375 C 9.109375 -7.316406 9.039062 -7.734375 8.90625 -8.109375 C 8.78125 -8.492188 8.59375 -8.828125 8.34375 -9.109375 C 8.09375 -9.390625 7.789062 -9.601562 7.4375 -9.75 C 7.082031 -9.90625 6.675781 -9.984375 6.21875 -9.984375 C 5.269531 -9.984375 4.519531 -9.707031 3.96875 -9.15625 C 3.414062 -8.601562 3.078125 -7.835938 2.953125 -6.859375 Z M 10.703125 -1.578125 C 10.460938 -1.285156 10.171875 -1.03125 9.828125 -0.8125 C 9.484375 -0.59375 9.117188 -0.410156 8.734375 -0.265625 C 8.347656 -0.128906 7.945312 -0.0234375 7.53125 0.046875 C 7.113281 0.117188 6.703125 0.15625 6.296875 0.15625 C 5.515625 0.15625 4.796875 0.0234375 4.140625 -0.234375 C 3.484375 -0.503906 2.914062 -0.890625 2.4375 -1.390625 C 1.957031 -1.898438 1.582031 -2.53125 1.3125 -3.28125 C 1.050781 -4.03125 0.921875 -4.890625 0.921875 -5.859375 C 0.921875 -6.640625 1.039062 -7.367188 1.28125 -8.046875 C 1.519531 -8.734375 1.863281 -9.328125 2.3125 -9.828125 C 2.769531 -10.328125 3.320312 -10.71875 3.96875 -11 C 4.625 -11.289062 5.363281 -11.4375 6.1875 -11.4375 C 6.851562 -11.4375 7.472656 -11.320312 8.046875 -11.09375 C 8.628906 -10.875 9.128906 -10.550781 9.546875 -10.125 C 9.960938 -9.695312 10.289062 -9.171875 10.53125 -8.546875 C 10.769531 -7.921875 10.890625 -7.207031 10.890625 -6.40625 C 10.890625 -6.09375 10.851562 -5.882812 10.78125 -5.78125 C 10.71875 -5.675781 10.59375 -5.625 10.40625 -5.625 L 2.875 -5.625 C 2.894531 -4.914062 2.992188 -4.296875 3.171875 -3.765625 C 3.347656 -3.242188 3.59375 -2.804688 3.90625 -2.453125 C 4.21875 -2.097656 4.585938 -1.832031 5.015625 -1.65625 C 5.441406 -1.488281 5.921875 -1.40625 6.453125 -1.40625 C 6.953125 -1.40625 7.378906 -1.460938 7.734375 -1.578125 C 8.097656 -1.691406 8.410156 -1.8125 8.671875 -1.9375 C 8.929688 -2.070312 9.144531 -2.195312 9.3125 -2.3125 C 9.488281 -2.425781 9.640625 -2.484375 9.765625 -2.484375 C 9.929688 -2.484375 10.0625 -2.421875 10.15625 -2.296875 Z M 10.703125 -1.578125 "/></g></g></g><g fill="#d9d9d9" fill-opacity="1"><g transform="translate(99.447423, 27.384868)"><g/></g></g><g fill="#d9d9d9" fill-opacity="1"><g transform="translate(105.137545, 27.384868)"><g><path d="M 8.1875 -1.71875 C 8.84375 -1.71875 9.429688 -1.828125 9.953125 -2.046875 C 10.472656 -2.265625 10.910156 -2.570312 11.265625 -2.96875 C 11.628906 -3.375 11.90625 -3.851562 12.09375 -4.40625 C 12.28125 -4.96875 12.375 -5.582031 12.375 -6.25 L 12.375 -15.9375 L 14.515625 -15.9375 L 14.515625 -6.25 C 14.515625 -5.332031 14.367188 -4.476562 14.078125 -3.6875 C 13.785156 -2.90625 13.363281 -2.226562 12.8125 -1.65625 C 12.269531 -1.082031 11.609375 -0.628906 10.828125 -0.296875 C 10.046875 0.0234375 9.164062 0.1875 8.1875 0.1875 C 7.207031 0.1875 6.320312 0.0234375 5.53125 -0.296875 C 4.75 -0.628906 4.082031 -1.082031 3.53125 -1.65625 C 2.988281 -2.226562 2.566406 -2.90625 2.265625 -3.6875 C 1.972656 -4.476562 1.828125 -5.332031 1.828125 -6.25 L 1.828125 -15.9375 L 3.984375 -15.9375 L 3.984375 -6.265625 C 3.984375 -5.597656 4.078125 -4.984375 4.265625 -4.421875 C 4.453125 -3.867188 4.722656 -3.390625 5.078125 -2.984375 C 5.441406 -2.585938 5.882812 -2.273438 6.40625 -2.046875 C 6.925781 -1.828125 7.519531 -1.71875 8.1875 -1.71875 Z M 8.1875 -1.71875 "/></g></g></g><g fill="#d9d9d9" fill-opacity="1"><g transform="translate(121.485535, 27.384868)"><g><path d="M 3.5625 -2.71875 C 3.925781 -2.226562 4.320312 -1.878906 4.75 -1.671875 C 5.175781 -1.472656 5.65625 -1.375 6.1875 -1.375 C 7.238281 -1.375 8.046875 -1.75 8.609375 -2.5 C 9.171875 -3.25 9.453125 -4.316406 9.453125 -5.703125 C 9.453125 -6.429688 9.390625 -7.054688 9.265625 -7.578125 C 9.140625 -8.109375 8.953125 -8.539062 8.703125 -8.875 C 8.460938 -9.21875 8.160156 -9.46875 7.796875 -9.625 C 7.441406 -9.78125 7.039062 -9.859375 6.59375 -9.859375 C 5.945312 -9.859375 5.378906 -9.707031 4.890625 -9.40625 C 4.410156 -9.113281 3.96875 -8.695312 3.5625 -8.15625 Z M 3.453125 -9.515625 C 3.929688 -10.097656 4.476562 -10.566406 5.09375 -10.921875 C 5.71875 -11.285156 6.429688 -11.46875 7.234375 -11.46875 C 7.890625 -11.46875 8.476562 -11.34375 9 -11.09375 C 9.53125 -10.84375 9.976562 -10.472656 10.34375 -9.984375 C 10.71875 -9.503906 11.003906 -8.90625 11.203125 -8.1875 C 11.398438 -7.46875 11.5 -6.640625 11.5 -5.703125 C 11.5 -4.867188 11.390625 -4.09375 11.171875 -3.375 C 10.953125 -2.664062 10.628906 -2.050781 10.203125 -1.53125 C 9.785156 -1.007812 9.273438 -0.597656 8.671875 -0.296875 C 8.066406 0.00390625 7.390625 0.15625 6.640625 0.15625 C 5.953125 0.15625 5.359375 0.0390625 4.859375 -0.1875 C 4.367188 -0.425781 3.9375 -0.753906 3.5625 -1.171875 L 3.5625 3.8125 L 1.5625 3.8125 L 1.5625 -11.265625 L 2.75 -11.265625 C 3.03125 -11.265625 3.207031 -11.125 3.28125 -10.84375 Z M 3.453125 -9.515625 "/></g></g></g><path fill="#d9d9d9" d="M 32.847656 12.726562 C 32.898438 12.578125 32.910156 12.414062 32.875 12.253906 C 32.765625 11.773438 32.285156 11.472656 31.804688 11.582031 C 31.769531 11.589844 31.738281 11.59375 31.703125 11.601562 C 32.03125 12.027344 32.414062 12.402344 32.847656 12.726562 Z M 32.847656 12.726562 " fill-opacity="1" fill-rule="nonzero"/><path fill="#d9d9d9" d="M 29.695312 12.113281 C 29.714844 11.96875 29.765625 11.828125 29.835938 11.707031 C 28.5 11.570312 27.386719 11.003906 26.566406 10.417969 C 26.097656 10.082031 25.730469 9.742188 25.484375 9.496094 C 25.363281 9.371094 25.269531 9.265625 25.210938 9.199219 C 25.183594 9.164062 25.160156 9.140625 25.148438 9.125 C 25.140625 9.117188 25.136719 9.109375 25.136719 9.109375 C 25.078125 9.035156 25.015625 8.972656 24.941406 8.925781 C 23.953125 7.941406 22.964844 6.957031 21.976562 5.976562 C 21.9375 5.9375 21.886719 5.898438 21.824219 5.863281 C 21.679688 5.742188 21.421875 5.542969 21.078125 5.339844 C 20.542969 5.03125 19.78125 4.703125 18.855469 4.699219 C 17.953125 4.691406 16.917969 5.054688 16.035156 5.933594 C 15.144531 6.8125 14.363281 8.160156 13.699219 10.191406 C 13.550781 10.65625 13.808594 11.15625 14.277344 11.308594 C 14.371094 11.335938 14.464844 11.351562 14.554688 11.351562 C 14.933594 11.351562 15.285156 11.109375 15.40625 10.734375 C 16.007812 8.875 16.695312 7.78125 17.296875 7.195312 C 17.90625 6.609375 18.390625 6.480469 18.855469 6.472656 C 19.066406 6.472656 19.277344 6.511719 19.480469 6.570312 C 17.683594 8.703125 16.675781 11.324219 15.75 13.980469 C 15.71875 14.070312 15.699219 14.15625 15.6875 14.246094 C 15.574219 14.613281 15.613281 15.023438 15.832031 15.375 C 15.832031 15.375 15.835938 15.378906 15.839844 15.386719 C 15.910156 15.503906 16.40625 16.4375 16.402344 17.742188 C 16.402344 18.433594 16.273438 19.230469 15.863281 20.132812 C 15.457031 21.03125 14.761719 22.042969 13.585938 23.117188 C 13.015625 23.636719 12.980469 24.511719 13.503906 25.078125 C 13.78125 25.371094 14.15625 25.523438 14.535156 25.523438 C 14.875 25.523438 15.214844 25.402344 15.484375 25.15625 C 16.902344 23.863281 17.84375 22.539062 18.417969 21.269531 C 18.996094 20 19.203125 18.785156 19.203125 17.742188 C 19.199219 17.449219 19.183594 17.171875 19.15625 16.90625 C 19.429688 17.046875 20 17.382812 20.527344 17.910156 C 20.894531 18.269531 21.238281 18.714844 21.492188 19.246094 C 21.746094 19.777344 21.914062 20.398438 21.917969 21.175781 C 21.914062 21.851562 21.785156 22.652344 21.425781 23.609375 C 21.152344 24.328125 21.523438 25.125 22.246094 25.394531 C 22.40625 25.453125 22.574219 25.480469 22.734375 25.480469 C 23.304688 25.480469 23.835938 25.136719 24.046875 24.578125 C 24.507812 23.351562 24.714844 22.214844 24.714844 21.175781 C 24.71875 19.945312 24.421875 18.867188 23.984375 17.976562 C 23.320312 16.636719 22.355469 15.730469 21.570312 15.148438 C 21.363281 14.996094 21.164062 14.863281 20.984375 14.753906 C 21.648438 12.445312 22.714844 11.621094 24.300781 10.832031 C 24.597656 11.125 25.003906 11.488281 25.515625 11.855469 C 26.648438 12.664062 28.316406 13.5 30.398438 13.507812 C 30.230469 13.324219 30.066406 13.132812 29.914062 12.933594 C 29.734375 12.699219 29.65625 12.40625 29.695312 12.113281 Z M 29.695312 12.113281 " fill-opacity="1" fill-rule="nonzero"/><path fill="#d9d9d9" d="M 26.851562 3.332031 C 27.140625 3.496094 27.386719 3.710938 27.59375 3.972656 C 27.796875 4.234375 27.945312 4.523438 28.03125 4.84375 C 28.121094 5.160156 28.144531 5.484375 28.101562 5.8125 C 28.0625 6.140625 27.957031 6.449219 27.792969 6.738281 C 27.628906 7.023438 27.414062 7.269531 27.148438 7.472656 C 26.886719 7.675781 26.59375 7.820312 26.269531 7.90625 C 25.949219 7.996094 25.621094 8.019531 25.289062 7.976562 C 24.957031 7.9375 24.648438 7.832031 24.359375 7.671875 C 24.066406 7.507812 23.820312 7.292969 23.613281 7.03125 C 23.410156 6.769531 23.261719 6.480469 23.175781 6.164062 C 23.085938 5.84375 23.0625 5.519531 23.105469 5.191406 C 23.144531 4.863281 23.25 4.554688 23.414062 4.265625 C 23.582031 3.980469 23.792969 3.734375 24.058594 3.53125 C 24.324219 3.328125 24.617188 3.183594 24.9375 3.097656 C 25.257812 3.007812 25.585938 2.984375 25.917969 3.027344 C 26.25 3.066406 26.558594 3.171875 26.851562 3.332031 Z M 26.851562 3.332031 " fill-opacity="1" fill-rule="nonzero"/><path fill="#d9d9d9" d="M 39.785156 8.648438 C 40.121094 8.664062 40.4375 8.738281 40.742188 8.878906 C 41.046875 9.015625 41.308594 9.207031 41.535156 9.449219 C 41.761719 9.691406 41.933594 9.96875 42.050781 10.28125 C 42.164062 10.589844 42.214844 10.910156 42.203125 11.242188 C 42.1875 11.574219 42.113281 11.886719 41.972656 12.1875 C 41.832031 12.488281 41.640625 12.75 41.394531 12.976562 C 41.148438 13.199219 40.871094 13.371094 40.554688 13.484375 C 40.242188 13.597656 39.917969 13.648438 39.585938 13.636719 C 39.253906 13.621094 38.933594 13.546875 38.628906 13.40625 C 38.328125 13.269531 38.0625 13.078125 37.835938 12.835938 C 37.609375 12.59375 37.4375 12.316406 37.324219 12.003906 C 37.207031 11.695312 37.15625 11.375 37.167969 11.042969 C 37.183594 10.710938 37.257812 10.398438 37.398438 10.097656 C 37.539062 9.796875 37.730469 9.535156 37.976562 9.308594 C 38.222656 9.085938 38.503906 8.914062 38.816406 8.800781 C 39.128906 8.6875 39.453125 8.636719 39.785156 8.648438 Z M 39.785156 8.648438 " fill-opacity="1" fill-rule="nonzero"/><g clip-path="url(#6bbc148e09)"><path fill="#d9d9d9" d="M 44.636719 13.769531 C 43.824219 13.472656 43.121094 13.445312 42.816406 13.441406 C 42.699219 13.425781 42.59375 13.425781 42.511719 13.445312 C 41.160156 13.757812 39.8125 14.070312 38.460938 14.382812 C 38.296875 14.394531 38.074219 14.40625 37.796875 14.40625 C 37.023438 14.40625 35.875 14.316406 34.722656 13.933594 C 34.71875 13.933594 34.71875 13.933594 34.71875 13.933594 C 34.042969 13.707031 33.371094 13.386719 32.75 12.929688 C 32.304688 12.605469 31.890625 12.207031 31.519531 11.726562 C 31.496094 11.699219 31.476562 11.671875 31.453125 11.648438 C 31.140625 11.328125 30.628906 11.28125 30.261719 11.554688 C 30.199219 11.605469 30.140625 11.664062 30.09375 11.726562 C 29.855469 12.035156 29.84375 12.472656 30.09375 12.800781 C 30.285156 13.054688 30.492188 13.285156 30.703125 13.503906 C 31.746094 14.574219 32.980469 15.230469 34.152344 15.617188 C 35.5625 16.082031 36.890625 16.179688 37.796875 16.179688 C 37.8125 16.179688 37.824219 16.179688 37.839844 16.179688 C 38.71875 17.574219 39.234375 18.722656 38.859375 20.621094 C 38.574219 20.445312 38.265625 20.277344 37.929688 20.128906 C 37.296875 19.851562 36.5625 19.640625 35.75 19.636719 C 34.769531 19.628906 33.683594 19.992188 32.800781 20.777344 C 31.910156 21.554688 31.195312 22.6875 30.613281 24.238281 C 30.34375 24.957031 30.714844 25.753906 31.4375 26.023438 C 31.597656 26.082031 31.761719 26.109375 31.925781 26.109375 C 32.492188 26.109375 33.027344 25.761719 33.238281 25.203125 C 33.710938 23.9375 34.230469 23.21875 34.652344 22.855469 C 35.078125 22.496094 35.378906 22.421875 35.75 22.410156 C 36.054688 22.410156 36.414062 22.496094 36.792969 22.664062 C 37.359375 22.910156 37.9375 23.332031 38.347656 23.695312 C 38.550781 23.875 38.71875 24.039062 38.828125 24.152344 C 38.882812 24.207031 38.925781 24.253906 38.949219 24.28125 C 38.964844 24.292969 38.972656 24.304688 38.976562 24.308594 C 38.976562 24.3125 38.980469 24.3125 38.980469 24.3125 C 39.332031 24.71875 39.867188 24.871094 40.359375 24.757812 C 40.328125 25.070312 40.304688 25.410156 40.304688 25.789062 C 40.304688 27.652344 40.796875 30.304688 42.648438 33.453125 C 42.910156 33.898438 43.378906 34.144531 43.859375 34.144531 C 44.097656 34.144531 44.339844 34.082031 44.5625 33.957031 C 45.230469 33.570312 45.457031 32.722656 45.070312 32.0625 C 43.453125 29.300781 43.109375 27.175781 43.105469 25.789062 C 43.105469 25.132812 43.183594 24.640625 43.257812 24.328125 C 43.292969 24.171875 43.328125 24.0625 43.347656 24 C 43.359375 23.96875 43.367188 23.949219 43.371094 23.941406 L 43.371094 23.9375 C 43.394531 23.878906 43.414062 23.820312 43.429688 23.761719 C 43.46875 23.679688 43.5 23.59375 43.523438 23.503906 C 44.128906 20.867188 44.65625 18.222656 44.355469 15.578125 C 44.421875 15.613281 44.488281 15.648438 44.550781 15.6875 C 44.894531 15.894531 45.207031 16.183594 45.453125 16.621094 C 45.695312 17.0625 45.875 17.679688 45.875 18.574219 C 45.875 19.210938 45.78125 19.992188 45.546875 20.929688 C 45.425781 21.40625 45.71875 21.886719 46.199219 22.003906 C 46.269531 22.023438 46.34375 22.03125 46.414062 22.03125 C 46.816406 22.03125 47.183594 21.761719 47.285156 21.359375 C 47.546875 20.304688 47.667969 19.386719 47.667969 18.574219 C 47.667969 17.4375 47.429688 16.507812 47.023438 15.773438 C 46.417969 14.664062 45.457031 14.0625 44.636719 13.769531 Z M 44.636719 13.769531 " fill-opacity="1" fill-rule="nonzero"/></g><g clip-path="url(#feae94662a)"><path fill="#d9d9d9" d="M 11.4375 25.792969 L 30.601562 25.792969 L 30.601562 34.667969 L 11.4375 34.667969 Z M 11.4375 25.792969 " fill-opacity="1" fill-rule="nonzero"/></g></svg>